<?xml version="1.0" standalone="no"?>
<!DOCTYPE svg PUBLIC "-//W3C//DTD SVG 20010904//EN"
 "http://www.w3.org/TR/2001/REC-SVG-20010904/DTD/svg10.dtd">
<svg version="1.0" xmlns="http://www.w3.org/2000/svg"
 width="669.000000pt" height="669.000000pt" viewBox="0 0 669.000000 669.000000"
 preserveAspectRatio="xMidYMid meet">
<metadata>
Created by potrace 1.14, written by Peter Selinger 2001-2017
</metadata>
<g transform="translate(0.000000,669.000000) scale(0.100000,-0.100000)"
fill="#000000" stroke="none">
<path d="M2729 6285 c37 -105 292 -772 382 -997 23 -60 45 -108 48 -108 3 0
29 43 56 95 28 52 53 95 56 95 4 0 67 -75 142 -167 161 -201 309 -373 367
-428 l43 -40 -7 30 c-9 42 -271 564 -355 710 -39 66 -68 121 -66 123 1 2 42
-22 89 -52 48 -31 105 -65 129 -77 23 -12 61 -35 84 -50 23 -16 44 -29 47 -29
16 0 21 -7 -284 494 -37 61 -71 111 -76 113 -5 1 -47 -47 -93 -107 -47 -61
-86 -110 -87 -110 -3 0 -209 252 -356 435 -31 39 -79 95 -107 125 l-51 55 39
-110z"/>
<path d="M4687 5652 c-155 -116 -336 -310 -448 -480 -102 -154 -160 -283 -199
-447 l-20 -80 30 -40 c92 -121 148 -239 171 -353 18 -97 7 -250 -26 -342 -64
-177 -184 -310 -364 -400 -200 -100 -474 -98 -681 4 -147 72 -293 194 -396
330 l-37 49 -62 -6 c-211 -20 -533 -116 -760 -226 -536 -262 -922 -696 -1099
-1238 l-17 -52 -60 39 c-90 58 -145 73 -248 68 -132 -7 -219 -62 -276 -174
-104 -205 67 -456 292 -430 166 19 221 192 94 297 -77 63 -148 57 -166 -15 -9
-37 -7 -40 28 -72 49 -45 48 -58 -4 -51 -138 18 -161 209 -34 272 84 41 185
16 280 -67 l47 -41 -7 -74 c-12 -127 -7 -384 10 -495 88 -595 455 -1092 925
-1253 166 -57 165 -57 744 -62 297 -3 568 -2 602 2 l62 6 13 47 c14 53 67 183
79 196 14 14 103 -42 140 -89 19 -24 45 -68 57 -97 l22 -53 135 -3 c75 -1 136
1 136 5 -1 24 -37 108 -78 178 -145 249 -405 369 -717 332 l-70 -9 39 33 c40
35 146 167 184 229 43 72 93 205 113 303 18 86 20 124 16 242 -7 185 -41 308
-123 449 -123 210 -295 364 -512 455 -143 61 -236 81 -392 88 -150 6 -165 5
-647 -67 -347 -52 -383 -56 -368 -41 30 29 465 275 780 441 55 29 177 94 270
145 377 204 454 245 558 298 59 30 107 51 105 47 -3 -6 -45 -46 -234 -219 -33
-31 -133 -119 -221 -196 -89 -77 -160 -141 -159 -143 7 -6 1352 183 1516 214
27 5 5 -13 -100 -81 -74 -48 -227 -149 -340 -223 -113 -74 -243 -160 -290
-190 -161 -104 -227 -93 538 -90 370 2 672 1 672 -2 0 -3 -28 -20 -63 -39 -67
-37 -681 -429 -735 -469 -18 -14 -31 -26 -29 -28 2 -2 120 -33 263 -69 142
-36 268 -69 278 -73 17 -7 12 -12 -30 -36 -93 -54 -204 -129 -204 -138 0 -6
16 -69 35 -142 41 -155 77 -363 100 -571 9 -82 29 -260 43 -395 l27 -245 155
0 155 0 31 115 c22 83 35 114 45 112 8 -2 63 -23 123 -48 60 -24 112 -44 117
-44 5 0 -16 48 -45 108 -105 209 -146 366 -146 559 0 332 114 630 324 852 157
164 319 252 671 361 306 95 463 165 648 287 113 75 248 199 302 278 21 30 46
55 55 55 9 0 45 14 80 32 109 54 208 175 244 297 22 74 21 78 -13 73 -23 -3
-32 1 -42 19 -17 31 -17 176 -1 207 13 23 62 32 62 10 0 -8 3 -9 10 -2 12 12
-12 126 -39 186 -29 61 -95 126 -160 156 -95 44 -254 21 -315 -47 -25 -28 -42
-27 -170 9 -243 68 -469 175 -824 388 -129 77 -263 153 -298 169 -56 24 -64
31 -58 48 40 123 45 162 40 285 -3 69 -14 169 -26 223 -49 232 -65 482 -39
621 17 91 13 93 -74 28z m280 -1718 c39 -15 125 -93 117 -105 -3 -5 0 -9 6 -9
6 0 8 -4 5 -10 -3 -5 -2 -10 4 -10 17 0 30 -63 27 -130 -4 -88 -5 -92 -16 -85
-6 3 -7 -1 -4 -9 3 -9 1 -16 -6 -16 -6 0 -8 -4 -5 -10 3 -5 1 -10 -4 -10 -6 0
-11 -6 -11 -14 0 -7 -8 -20 -17 -27 -14 -12 -16 -12 -8 0 5 10 4 12 -4 7 -6
-4 -9 -11 -6 -16 6 -10 -20 -32 -28 -23 -4 3 -7 1 -7 -6 0 -7 -4 -9 -10 -6 -5
3 -10 1 -10 -6 0 -7 -3 -10 -6 -6 -4 3 -13 -1 -21 -9 -8 -8 -18 -12 -23 -9 -5
3 -11 1 -14 -3 -3 -5 -32 -10 -66 -11 -139 -4 -252 98 -267 241 -21 202 186
358 374 282z m1419 -345 c15 -16 19 -39 21 -102 3 -85 -7 -121 -39 -141 -31
-19 -71 22 -82 82 -22 129 39 228 100 161z m-1152 -504 c29 -115 162 -192 286
-166 90 19 133 52 180 138 l25 45 85 1 c85 2 85 2 82 -22 -2 -14 -9 -36 -15
-50 -12 -29 -14 -37 -16 -52 0 -5 -6 -7 -13 -3 -7 5 -8 3 -3 -6 5 -8 -1 -20
-16 -32 -13 -11 -17 -16 -9 -12 8 5 -10 -16 -40 -46 -30 -30 -58 -54 -62 -52
-5 1 -8 -2 -8 -8 0 -12 -55 -41 -64 -33 -3 4 -6 1 -6 -5 0 -6 -7 -9 -15 -6 -8
4 -15 2 -15 -4 0 -17 -92 -32 -171 -28 -169 11 -307 110 -368 264 -12 29 -21
63 -21 75 0 22 4 23 89 25 88 3 89 2 95 -23z"/>
<path d="M961 5244 c9 -10 104 -120 211 -244 107 -124 221 -257 254 -296 186
-221 346 -404 355 -404 4 0 10 44 14 98 9 145 4 141 115 75 212 -125 293 -170
454 -255 93 -49 171 -86 175 -83 9 10 -211 220 -432 414 -192 168 -250 221
-242 221 12 0 270 -61 315 -74 62 -19 75 -13 39 17 -15 12 -88 76 -164 142
-76 66 -177 153 -224 194 -47 41 -92 81 -99 88 -7 7 -17 13 -21 13 -4 0 -22
-61 -40 -136 -26 -104 -37 -134 -48 -130 -7 3 -127 70 -266 149 -345 197 -415
234 -396 211z"/>
<path d="M2665 4910 c-10 -110 2 -261 31 -409 86 -432 335 -754 647 -837 72
-19 240 -18 308 2 118 35 229 111 273 185 19 32 19 32 0 24 -93 -39 -129 -47
-210 -52 -323 -20 -634 222 -728 565 -10 35 -16 66 -13 68 2 2 21 -22 43 -53
21 -32 84 -103 139 -158 118 -117 233 -192 363 -238 78 -28 99 -31 202 -32
129 0 185 14 264 66 52 35 55 47 35 155 -17 97 -72 198 -148 273 -105 105
-233 163 -445 201 -312 57 -494 129 -682 271 -36 27 -67 49 -68 49 -2 0 -7
-36 -11 -80z"/>
<path d="M5065 1984 c-133 -76 -241 -175 -325 -301 -152 -227 -170 -515 -56
-911 40 -139 108 -308 158 -397 l34 -60 149 0 150 0 -4 117 c-2 95 0 118 10
118 8 0 76 -24 152 -54 127 -50 137 -53 131 -33 -3 12 -14 31 -24 42 -62 69
-181 288 -236 434 -110 291 -135 662 -68 1004 9 43 14 80 12 82 -2 2 -40 -16
-83 -41z"/>
</g>
</svg>
