<?xml version="1.0" standalone="no"?>
<!DOCTYPE svg PUBLIC "-//W3C//DTD SVG 20010904//EN"
 "http://www.w3.org/TR/2001/REC-SVG-20010904/DTD/svg10.dtd">
<svg version="1.0" xmlns="http://www.w3.org/2000/svg"
 width="248.000000pt" height="248.000000pt" viewBox="0 0 248.000000 248.000000"
 preserveAspectRatio="xMidYMid meet">
<metadata>
Created by potrace 1.14, written by Peter Selinger 2001-2017
</metadata>
<g transform="translate(0.000000,248.000000) scale(0.100000,-0.100000)"
fill="#000000" stroke="none">
<path d="M1010 2363 c0 -18 145 -353 153 -353 4 0 15 16 23 36 19 44 25 40 97
-65 57 -82 74 -77 34 11 -13 29 -48 110 -78 180 -30 70 -57 128 -61 128 -4 0
-13 -18 -19 -40 -7 -22 -16 -40 -20 -40 -4 0 -32 34 -61 74 -49 69 -68 88 -68
69z"/>
<path d="M1655 2098 c-82 -89 -122 -146 -151 -216 -26 -63 -23 -106 12 -175
65 -126 33 -265 -76 -338 -71 -48 -145 -62 -235 -46 -67 12 -97 29 -171 98
-78 72 -96 74 -248 25 -250 -82 -415 -227 -510 -446 -40 -91 -43 -94 -75 -73
-41 27 -114 23 -146 -7 -73 -68 -66 -153 16 -196 52 -26 122 14 113 64 -11 58
-45 68 -69 21 -11 -20 -21 -29 -31 -25 -9 3 -18 6 -20 6 -11 0 -2 58 12 78 22
32 83 30 115 -4 22 -23 24 -34 25 -127 1 -166 24 -252 98 -372 82 -131 187
-212 309 -239 56 -13 426 -14 464 -2 12 4 28 23 37 46 9 22 22 40 30 40 8 0
31 -20 52 -44 39 -45 48 -49 93 -47 20 1 22 5 16 29 -7 28 -42 79 -77 112 -34
32 -84 50 -150 57 -67 6 -79 10 -61 21 6 4 25 30 42 57 150 236 22 538 -252
595 -75 15 -199 13 -287 -5 -14 -2 -40 -7 -58 -10 -19 -3 -38 -7 -44 -8 -6 -1
-12 3 -15 9 -2 6 36 29 85 52 434 202 739 52 846 -416 31 -134 33 -147 51
-317 14 -136 15 -140 41 -162 43 -39 98 -25 109 27 8 38 15 42 55 30 19 -5 35
-8 37 -6 2 2 -9 42 -25 89 -65 193 -26 369 110 494 55 50 100 74 216 114 48
17 122 49 165 72 133 70 347 241 362 288 4 11 0 30 -9 44 -21 32 -20 57 4 88
16 20 18 30 9 54 -22 65 -96 93 -170 66 -58 -20 -100 -12 -209 39 -86 41 -313
170 -322 183 -4 5 -5 19 -1 30 10 31 11 90 3 137 -17 88 -23 155 -23 221 0 47
-3 67 -12 67 -7 0 -43 -32 -80 -72z m213 -623 c43 -50 24 -128 -39 -161 -82
-42 -170 53 -128 137 35 70 116 81 167 24z m504 -122 c1 -20 1 -54 -1 -65 0
-5 -8 -8 -16 -8 -15 0 -31 61 -20 79 10 17 35 13 37 -6z m-423 -201 c25 -23
51 -38 69 -40 29 -2 74 25 100 60 16 22 50 24 58 3 9 -23 -31 -79 -74 -103
-87 -49 -196 -11 -231 79 -20 53 23 53 78 1z"/>
<path d="M391 1933 c71 -80 249 -257 253 -252 3 2 8 20 11 39 3 19 8 36 10 38
2 2 40 -22 84 -53 45 -31 86 -53 91 -50 10 6 -266 295 -282 295 -5 0 -8 -18
-6 -40 1 -22 0 -42 -3 -44 -3 -3 -39 17 -82 44 -85 56 -113 64 -76 23z"/>
<path d="M955 1842 c11 -206 94 -371 212 -424 73 -32 199 -21 237 21 22 24 15
28 -64 30 -97 3 -171 44 -228 128 -43 61 -20 72 39 18 84 -75 214 -114 277
-81 52 27 56 70 13 138 -38 60 -93 91 -210 118 -106 24 -160 43 -213 77 -57
35 -66 31 -63 -25z"/>
<path d="M1828 722 c-61 -48 -91 -86 -112 -142 -35 -93 -24 -209 34 -358 38
-98 61 -119 117 -105 35 8 38 12 41 47 4 42 -3 40 81 19 l24 -6 -27 44 c-80
128 -105 230 -103 407 1 72 0 132 -3 132 -3 0 -26 -17 -52 -38z"/>
</g>
</svg>
